PathFileType	4	(X/Y/Z)	RBDS06static.trc
DataRate	CameraRate	NumFrames	NumMarkers	Units	OrigDataRate	OrigDataStartFrame	OrigNumFrames
150.000000	150.000000	4	48	mm	150.000000	37	150
Frame#	Time	L.Ankle			L.Ankle.Medial			L.ASIS			L.GTR			L.Heel.Bottom			L.Heel.Lateral			L.Heel.Top			L.HF			L.Iliac.Crest			L.Knee			L.Knee.Medial			L.MT1			L.MT2			L.MT5			L.PSIS			L.Shank.Bottom.Lateral			L.Shank.Bottom.Medial			L.Shank.Top.Lateral			L.Shank.Top.Medial			L.Thigh.Bottom.Lateral			L.Thigh.Bottom.Medial			L.Thigh.Top.Lateral			L.Thigh.Top.Medial			L.TT			R.Ankle			R.Ankle.Medial			R.ASIS			R.GTR			R.Heel.Bottom			R.Heel.Lateral			R.Heel.Top			R.HF			R.Iliac.Crest			R.Knee			R.Knee.Medial			R.MT1			R.MT2			R.MT5			R.PSIS			R.Shank.Bottom.Lateral			R.Shank.Bottom.Medial			R.Shank.Top.Lateral			R.Shank.Top.Medial			R.Thigh.Bottom.Lateral			R.Thigh.Bottom.Medial			R.Thigh.Top.Lateral			R.Thigh.Top.Medial			R.TT			
		X1	Y1	Z1	X2	Y2	Z2	X3	Y3	Z3	X4	Y4	Z4	X5	Y5	Z5	X6	Y6	Z6	X7	Y7	Z7	X8	Y8	Z8	X9	Y9	Z9	X10	Y10	Z10	X11	Y11	Z11	X12	Y12	Z12	X13	Y13	Z13	X14	Y14	Z14	X15	Y15	Z15	X16	Y16	Z16	X17	Y17	Z17	X18	Y18	Z18	X19	Y19	Z19	X20	Y20	Z20	X21	Y21	Z21	X22	Y22	Z22	X23	Y23	Z23	X24	Y24	Z24	X25	Y25	Z25	X26	Y26	Z26	X27	Y27	Z27	X28	Y28	Z28	X29	Y29	Z29	X30	Y30	Z30	X31	Y31	Z31	X32	Y32	Z32	X33	Y33	Z33	X34	Y34	Z34	X35	Y35	Z35	X36	Y36	Z36	X37	Y37	Z37	X38	Y38	Z38	X39	Y39	Z39	X40	Y40	Z40	X41	Y41	Z41	X42	Y42	Z42	X43	Y43	Z43	X44	Y44	Z44	X45	Y45	Z45	X46	Y46	Z46	X47	Y47	Z47	X48	Y48	Z48	

38	0.2466666666666667	708.8379516601563	108.7978134155273	1042.802490234375	730.181396484375	121.0304946899414	1128.563598632813	854.6893310546875	1036.6396484375	1105.72900390625	765.5497436523438	948.581298828125	1049.20166015625	638.0662841796875	43.19841003417969	1078.50048828125	672.6084594726563	64.76217651367188	1038.630615234375	649.498291015625	93.10475921630859	1082.026977539063	718.4139404296875	487.0451354980469	1038.86376953125	764.16552734375	1106.757690429688	1066.09814453125	724.8892211914063	558.0490112304688	1042.867431640625	717.3533935546875	535.5660400390625	1174.945678710938	864.6624145507813	63.79818725585938	1122.557983398438	878.8394775390625	65.22398376464844	1077.672973632813	831.7334594726563	49.60199356079102	1012.380676269531	685.4426879882813	1074.764282226563	1177.63427734375	699.7323608398438	194.1273498535156	1038.556396484375	660.6787109375	192.3724365234375	1076.36328125	689.4354858398438	273.4239501953125	1030.862915039063	652.3269653320313	273.0279846191406	1069.604248046875	728.4752197265625	640.4368896484375	1033.277465820313	671.1199951171875	635.6380615234375	1078.13916015625	714.7433471679688	750.2800903320313	1032.982421875	665.3818969726563	746.2447509765625	1080.579956054688	776.7109375	456.587646484375	1092.468017578125	700.803466796875	115.7802734375	1412.707153320313	723.9703369140625	122.5654220581055	1325.025268554688	854.7739868164063	1036.504028320313	1341.142822265625	776.1100463867188	940.6060791015625	1392.870483398438	631.7095947265625	42.54486846923828	1368.837768554688	661.0357055664063	65.44049835205078	1410.497802734375	641.427001953125	91.94881439208984	1367.576904296875	721.9776000976563	491.4024963378906	1402.890380859375	785.3218994140625	1094.82080078125	1386.306274414063	730.7275390625	550.897216796875	1399.574462890625	729.7230834960938	533.8651733398438	1270.26318359375	857.4130249023438	66.28524780273438	1331.531616210938	859.7048950195313	72.32227325439453	1370.801635742188	819.317138671875	49.20946502685547	1443.649047851563	688.7294921875	1072.946533203125	1275.399047851563	685.2130126953125	206.8227691650391	1412.81201171875	650.7315063476563	207.0406494140625	1374.55029296875	677.367919921875	291.2923583984375	1417.337768554688	642.583251953125	287.4037780761719	1376.765014648438	744.8768310546875	647.3403930664063	1413.635009765625	680.2015380859375	650.2455444335938	1377.229614257813	743.0693359375	758.06201171875	1420.255615234375	683.5350952148438	760.5114135742188	1382.35009765625	776.50244140625	457.5555419921875	1356.587280273438	
39	0.2533333333333334	708.8264770507813	108.7958679199219	1042.81884765625	730.1856689453125	121.0277404785156	1128.568115234375	854.73876953125	1036.653076171875	1105.731079101563	765.5834350585938	948.5894775390625	1049.209106445313	638.0770263671875	43.19234466552734	1078.509155273438	672.6127319335938	64.76334381103516	1038.628295898438	649.507568359375	93.08628082275391	1082.034423828125	718.4464111328125	487.0420837402344	1038.861206054688	764.2005615234375	1106.750366210938	1066.103637695313	724.9315795898438	558.0578002929688	1042.871826171875	717.3728637695313	535.5769653320313	1174.954345703125	864.6505126953125	63.79186630249023	1122.5537109375	878.845947265625	65.22544097900391	1077.671630859375	831.7212524414063	49.60752487182617	1012.369812011719	685.4942626953125	1074.760620117188	1177.644165039063	699.7293701171875	194.1396636962891	1038.558349609375	660.6880493164063	192.3756713867188	1076.357543945313	689.4483642578125	273.4280090332031	1030.86328125	652.3389282226563	273.0420532226563	1069.60498046875	728.5193481445313	640.4418334960938	1033.282958984375	671.1544189453125	635.63720703125	1078.150756835938	714.7848510742188	750.2861938476563	1032.989624023438	665.427490234375	746.249267578125	1080.585083007813	776.73291015625	456.595458984375	1092.471435546875	700.8109741210938	115.7865295410156	1412.711791992188	723.9693603515625	122.5758285522461	1325.019775390625	854.81396484375	1036.5029296875	1341.164672851563	776.1495971679688	940.6007690429688	1392.883056640625	631.7159423828125	42.54293441772461	1368.84619140625	661.0310668945313	65.43667602539063	1410.50048828125	641.4306030273438	91.94367218017578	1367.580688476563	722.0119018554688	491.4121398925781	1402.896728515625	785.3677978515625	1094.81982421875	1386.31640625	730.7610473632813	550.8951416015625	1399.579345703125	729.7456665039063	533.8765869140625	1270.26806640625	857.400146484375	66.2855224609375	1331.525024414063	859.687744140625	72.3248291015625	1370.800659179688	819.3095092773438	49.20706558227539	1443.648803710938	688.7785034179688	1072.94677734375	1275.406127929688	685.2274780273438	206.8254089355469	1412.804077148438	650.7376708984375	207.0474548339844	1374.550048828125	677.3826293945313	291.3038330078125	1417.336547851563	642.5928955078125	287.4098510742188	1376.764892578125	744.9134521484375	647.3453979492188	1413.64013671875	680.2418212890625	650.2439575195313	1377.23046875	743.116455078125	758.0716552734375	1420.266235351563	683.577392578125	760.5062255859375	1382.3662109375	776.5361328125	457.5599060058594	1356.592529296875	
40	0.26	708.8372192382813	108.813362121582	1042.824951171875	730.1757202148438	121.025764465332	1128.562622070313	854.7935791015625	1036.657958984375	1105.760498046875	765.6436767578125	948.5918579101563	1049.22314453125	638.0742797851563	43.19173049926758	1078.49609375	672.6170654296875	64.77093505859375	1038.642456054688	649.50634765625	93.104736328125	1082.030883789063	718.486083984375	487.0502319335938	1038.875366210938	764.2329711914063	1106.748901367188	1066.127319335938	724.9718627929688	558.0513916015625	1042.886474609375	717.40625	535.57958984375	1174.96435546875	864.6561889648438	63.79818725585938	1122.558349609375	878.8468627929688	65.23179626464844	1077.6767578125	831.7383422851563	49.60956954956055	1012.381286621094	685.5440673828125	1074.76416015625	1177.646118164063	699.74951171875	194.1380920410156	1038.568481445313	660.7241821289063	192.3601837158203	1076.378540039063	689.4691772460938	273.4295043945313	1030.877319335938	652.3700561523438	273.0387878417969	1069.608764648438	728.5663452148438	640.4371337890625	1033.305297851563	671.0700073242188	635.791015625	1078.130859375	714.8307495117188	750.295166015625	1032.999267578125	665.4619750976563	746.2549438476563	1080.606201171875	776.7854614257813	456.6032104492188	1092.4931640625	700.8099365234375	115.7751235961914	1412.711059570313	723.9843139648438	122.5808715820313	1325.028686523438	854.8692016601563	1036.503784179688	1341.17822265625	776.2005615234375	940.5993041992188	1392.896728515625	631.7147216796875	42.54914093017578	1368.846435546875	661.0324096679688	65.44013214111328	1410.492919921875	641.4298706054688	91.95953369140625	1367.587524414063	722.0513916015625	491.4091491699219	1402.90869140625	785.4107666015625	1094.807250976563	1386.324584960938	730.7968139648438	550.9033203125	1399.595336914063	729.8112182617188	533.8902587890625	1270.295532226563	857.40771484375	66.28815460205078	1331.527465820313	859.6989135742188	72.33139801025391	1370.798461914063	819.3161010742188	49.21817779541016	1443.656616210938	688.82373046875	1072.94970703125	1275.421630859375	685.236328125	206.8313598632813	1412.812377929688	650.7510375976563	207.0507202148438	1374.556396484375	677.3987426757813	291.2975769042969	1417.345825195313	642.6096801757813	287.4161987304688	1376.76904296875	744.9514770507813	647.3389282226563	1413.643920898438	680.288330078125	650.23974609375	1377.250122070313	743.16259765625	758.057861328125	1420.272705078125	683.6201782226563	760.5057373046875	1382.38525390625	776.5697631835938	457.5619506835938	1356.616577148438	
41	0.2666666666666667	708.8462524414063	108.8110656738281	1042.829467773438	730.1875610351563	121.026969909668	1128.561157226563	854.8399047851563	1036.651977539063	1105.752685546875	765.6799926757813	948.5784912109375	1049.235107421875	638.082763671875	43.19482803344727	1078.50244140625	672.6246948242188	64.76277160644531	1038.635620117188	649.5205078125	93.09732055664063	1082.031616210938	718.5191040039063	487.0513916015625	1038.881469726563	764.2728271484375	1106.745361328125	1066.138427734375	725.0028686523438	558.0494995117188	1042.891479492188	717.4378662109375	535.5667114257813	1174.969848632813	864.6629028320313	63.79609298706055	1122.555786132813	878.8555908203125	65.22438812255859	1077.674438476563	831.7401733398438	49.60321807861328	1012.381408691406	685.5995483398438	1074.755737304688	1177.669067382813	699.7640380859375	194.1411285400391	1038.56640625	660.7290649414063	192.3642272949219	1076.379516601563	689.4843139648438	273.4299926757813	1030.883911132813	652.3820190429688	273.0400695800781	1069.627685546875	728.5934448242188	640.4367065429688	1033.310180664063	671.1008911132813	635.7921142578125	1078.146240234375	714.8590087890625	750.2990112304688	1033.01123046875	665.5006103515625	746.2586669921875	1080.60546875	776.8139038085938	456.6026306152344	1092.495727539063	700.804443359375	115.7749786376953	1412.703857421875	723.9898681640625	122.57080078125	1325.026489257813	854.9109497070313	1036.499877929688	1341.192260742188	776.2554321289063	940.576171875	1392.902954101563	631.7127685546875	42.55137634277344	1368.841186523438	661.0418701171875	65.43863677978516	1410.489379882813	641.435302734375	91.94364166259766	1367.590698242188	722.0827026367188	491.3928527832031	1402.905029296875	785.4454956054688	1094.80810546875	1386.331420898438	730.8365478515625	550.9044189453125	1399.602905273438	729.84423828125	533.8689575195313	1270.29736328125	857.4192504882813	66.28427124023438	1331.535400390625	859.7098388671875	72.32126617431641	1370.803100585938	819.318115234375	49.21149826049805	1443.65087890625	688.8754272460938	1072.955200195313	1275.431884765625	685.2508544921875	206.8237152099609	1412.807983398438	650.7530517578125	207.0547180175781	1374.544189453125	677.4188232421875	291.3079528808594	1417.347045898438	642.6322021484375	287.4139709472656	1376.7724609375	744.9960327148438	647.3320922851563	1413.654418945313	680.3251342773438	650.2491455078125	1377.254638671875	743.2138671875	758.0576782226563	1420.293823242188	683.656982421875	760.5104370117188	1382.386108398438	776.6074829101563	457.5597839355469	1356.621215820313	
